<svg width="230" height="68" viewBox="0 0 230 68" fill="none" xmlns="http://www.w3.org/2000/svg">
<path d="M84.0928 52.9968L84.4367 49.9834C85.8978 49.8423 87.2809 49.2534 88.3996 48.2959C89.1512 47.1823 89.4948 45.8399 89.3716 44.4989L89.4464 17.6944C89.5264 16.752 89.3722 15.8044 88.9977 14.9371C88.6986 14.47 88.0706 14.244 87.0986 14.244H86.2761L84.9452 14.3344L84.8106 14.0783L85.2592 11.2758C85.977 11.2758 86.8443 11.2758 87.8612 11.2758C88.8781 11.2758 89.9249 11.2758 91.0315 11.3662H94.0223C97.1926 11.3662 99.8544 11.3662 102.008 11.3662C104.161 11.3662 105.986 11.2456 107.481 11.11C108.976 10.9744 110.322 10.8388 111.504 10.6731L111.698 11.0498C111.444 12.451 111.22 13.8673 111.025 15.2686C110.831 16.6698 110.681 18.0711 110.562 19.4723C110.442 20.8736 110.322 22.3351 110.233 23.8267L107.242 24.0678C107.242 23.2693 107.242 22.6364 107.332 22.1844C107.421 21.7324 107.332 21.3557 107.332 21.0092V19.6682C107.395 18.511 107.248 17.3518 106.898 16.248C106.695 15.8661 106.4 15.5426 106.039 15.308C105.677 15.0733 105.263 14.9353 104.834 14.907C103.124 14.6813 101.399 14.5857 99.675 14.6207C98.5806 14.6242 97.4872 14.6896 96.4 14.8166C95.7121 14.907 95.2785 15.1179 95.114 15.4494C94.8924 15.9996 94.7806 16.5884 94.785 17.1821L93.9176 45.0112C93.8133 46.1962 94.0088 47.3885 94.4859 48.4767C94.7492 48.8072 95.0924 49.064 95.4826 49.2223C95.8728 49.3807 96.2969 49.4352 96.7141 49.3807H98.7927L101.2 49.2451L101.335 49.5012L100.767 52.5147L96.9533 52.3941L93.9625 52.2887H91.9138C90.9866 52.2887 89.8053 52.2887 88.3996 52.4845C86.9939 52.6804 85.5732 52.6653 84.0928 52.9968Z" fill="#777780"/>
<path d="M131.363 52.9969C130.647 53.0711 129.924 52.9923 129.241 52.7659C128.558 52.5394 127.93 52.1702 127.397 51.6825C126.865 51.1948 126.441 50.5994 126.153 49.9354C125.865 49.2714 125.719 48.5535 125.725 47.8288H125.471C124.454 48.8383 123.497 49.7273 122.585 50.4656C121.83 51.1076 121.025 51.6871 120.177 52.1983C119.678 52.537 119.102 52.7442 118.502 52.801C117.041 52.7785 115.61 52.379 114.345 51.6408C113.148 50.9887 112.15 50.0197 111.459 48.8383C110.758 47.5949 110.402 46.1847 110.427 44.7551C110.405 43.6012 110.728 42.4672 111.354 41.5006C111.915 40.6036 112.782 39.9444 113.792 39.6473L125.83 36.3326V33.515C125.926 31.7322 125.396 29.9721 124.334 28.5428C123.843 27.9599 123.227 27.496 122.534 27.1856C121.84 26.8752 121.085 26.7263 120.327 26.7498C119.038 26.7712 117.767 27.053 116.588 27.5785C115.201 28.1859 113.903 28.9818 112.73 29.9441L112.416 29.7482L111.653 27.006C112.76 26.3732 113.971 25.6951 115.332 25.002C116.582 24.3375 117.87 23.7489 119.19 23.2392C120.077 22.8528 121.023 22.6185 121.987 22.5461C123.621 22.495 125.244 22.8304 126.727 23.5255C127.98 24.144 129.021 25.125 129.718 26.343C130.459 27.6978 130.83 29.2263 130.795 30.7728C130.795 31.3303 130.795 32.2795 130.645 33.4547C130.495 34.63 130.406 36.0613 130.226 37.5681C130.047 39.0748 129.927 40.5815 129.823 41.9376C129.718 43.2936 129.658 44.514 129.658 45.4482C129.601 46.2363 129.853 47.0155 130.361 47.6179C130.603 47.877 130.899 48.08 131.227 48.2127C131.554 48.3453 131.907 48.4046 132.26 48.3863C133.01 48.3781 133.748 48.1922 134.413 47.8439C135.006 47.568 135.559 47.2133 136.058 46.7892L136.941 47.8138C136.539 48.4782 136.084 49.1082 135.58 49.6972C135.012 50.407 134.376 51.0581 133.681 51.6408C133.012 52.253 132.222 52.7152 131.363 52.9969ZM119.579 48.326C120.57 48.2689 121.534 47.9744 122.39 47.4672C123.492 46.8909 124.501 46.1492 125.381 45.2674L125.71 38.7584L117.037 41.365C116.467 41.5223 115.971 41.8782 115.637 42.3692C115.303 42.8602 115.152 43.4547 115.212 44.047C115.202 44.6069 115.306 45.163 115.517 45.6812C115.728 46.1993 116.041 46.6687 116.439 47.0604C116.849 47.4761 117.339 47.8029 117.879 48.0205C118.419 48.2382 118.997 48.3422 119.579 48.326Z" fill="#777780"/>
<path d="M138.526 67.5367C138.346 67.5367 138.122 67.3861 137.823 67.0847C137.496 66.7545 137.187 66.4075 136.896 66.0451C136.596 65.6562 136.321 65.2486 136.073 64.8246C135.891 64.5483 135.774 64.2341 135.729 63.9056L136.043 63.4535C137.306 63.4345 138.553 63.1577 139.707 62.6398C140.861 62.1218 141.899 61.3735 142.758 60.4401C145.022 58.06 146.792 55.2475 147.962 52.1682C147.573 50.9327 147.139 49.5315 146.631 47.9645C146.122 46.3975 145.584 44.7401 145.016 43.0074C144.447 41.2746 143.879 39.557 143.296 37.8393C142.713 36.1217 142.174 34.4643 141.621 32.8973C141.068 31.3303 140.574 29.8839 140.126 28.6785C139.832 27.7423 139.244 26.9278 138.451 26.3581C137.655 25.8782 136.746 25.6232 135.819 25.6198L135.699 25.3637L136.073 23.2543H139.378C140.215 23.2543 140.873 23.2543 141.337 23.2543C142.264 23.2543 143.176 23.2543 144.088 23.2543C145.001 23.2543 145.808 23.1639 146.526 23.0886L148.904 22.8625L149.038 23.179L148.65 25.1528C147.665 25.1139 146.682 25.2569 145.748 25.5746C145.513 25.6776 145.316 25.8522 145.185 26.0738C145.054 26.2954 144.994 26.5529 145.016 26.8102C145.078 27.56 145.213 28.3019 145.419 29.025C145.704 30.1099 146.047 31.3755 146.466 32.822C146.885 34.2684 147.334 35.7601 147.797 37.3421C148.261 38.9242 148.709 40.3555 149.128 41.6815C149.547 43.0074 150.04 44.5292 150.623 46.2016H150.878L153.225 40.4459C154.083 38.3868 154.875 36.3778 155.603 34.4191C156.331 32.4603 156.944 30.818 157.443 29.4921C157.773 28.6916 158.018 27.8583 158.175 27.006C158.198 26.7635 158.157 26.5192 158.058 26.2973C157.958 26.0753 157.803 25.8834 157.607 25.7404C157.042 25.4402 156.405 25.3046 155.768 25.3486H152.777L152.642 25.0925L153.031 22.9831C154.332 23.0735 155.484 23.1338 156.485 23.179C157.487 23.2242 158.474 23.179 159.476 23.179C160.239 23.179 160.972 23.179 161.854 23.179H164.845L164.396 25.5445C163.602 25.6467 162.862 26.0062 162.288 26.5691C161.624 27.3308 161.116 28.2165 160.792 29.1757L152.747 48.5822C151.252 52.3792 149.756 55.4981 148.635 57.9691C147.708 60.0046 146.591 61.9469 145.3 63.77C144.494 65.018 143.401 66.0518 142.115 66.7834C140.996 67.3236 139.765 67.5822 138.526 67.5367Z" fill="#777780"/>
<path d="M167.477 60.6512L164.486 60.832C164.666 59.0993 164.785 57.3364 164.875 55.5736C164.965 53.8107 164.995 51.8972 164.995 49.8631L165.443 49.4111C166.976 48.9717 168.364 48.1292 169.466 46.9702C170.703 45.5885 171.649 43.9689 172.248 42.209C173.069 39.9128 173.611 37.5248 173.863 35.0973L174.446 30.5771C174.635 29.6629 174.635 28.719 174.446 27.8048C174.33 27.4776 174.131 27.187 173.869 26.9621C173.606 26.7372 173.289 26.5861 172.95 26.524C171.715 26.2203 170.453 26.0386 169.182 25.9816L169.047 25.7255L169.496 23.3599H186.663C188.054 23.3599 189.25 23.3599 190.237 23.3599C191.224 23.3599 192.047 23.2545 192.69 23.1641L192.495 25.8762C191.563 25.8846 190.644 26.1007 189.804 26.509C189.554 26.7184 189.353 26.9811 189.216 27.2781C189.079 27.5751 189.009 27.8991 189.011 28.2266C188.847 30.1402 188.697 32.2496 188.592 34.5549C188.488 36.8601 188.413 39.075 188.368 41.2899C188.323 43.5048 188.368 45.343 188.368 46.8647C188.305 47.524 188.43 48.1876 188.727 48.7783C188.871 48.9668 189.057 49.1183 189.27 49.2204C189.483 49.3225 189.717 49.3724 189.953 49.3659L192.75 49.4864L193.124 49.9384C193.124 52.1533 193.228 54.1271 193.318 55.8749C193.408 57.6227 193.527 59.2349 193.692 60.7265L190.701 60.9074L189.759 55.6188C189.713 55.0944 189.556 54.5861 189.298 54.1285C189.04 53.6709 188.687 53.2747 188.263 52.9669C187.124 52.381 185.845 52.1254 184.57 52.2287H173.354C172.116 52.131 170.875 52.3759 169.765 52.9368C169.352 53.2614 169.006 53.6658 168.75 54.1262C168.493 54.5867 168.33 55.0941 168.27 55.6188L167.477 60.6512ZM171.455 50.1795L168.165 49.3508H179.755C180.982 49.493 182.221 49.2115 183.269 48.5523C183.97 47.6356 184.282 46.476 184.136 45.3279V28.6636C184.17 28.346 184.14 28.0247 184.047 27.7191C183.955 27.4135 183.802 27.13 183.598 26.8857C183.08 26.4924 182.434 26.3095 181.788 26.3734H175.657L177.93 24.264L176.913 35.2479C176.719 38.0444 176.114 40.7964 175.119 43.4144C174.233 45.5599 172.885 47.4798 171.171 49.0344L171.455 50.1795Z" fill="#777780"/>
<path d="M198.581 52.6051L198.895 49.9231C199.982 49.8474 201.023 49.4489 201.886 48.778C202.449 48.0051 202.71 47.0504 202.619 46.096V28.3469C202.686 27.6777 202.562 27.0031 202.26 26.4032C202.069 26.2059 201.832 26.0587 201.572 25.9747C201.311 25.8906 201.034 25.8722 200.764 25.9211H199.179L199.06 25.6649L199.374 23.1789H202.634C203.501 23.1789 204.249 23.1789 204.877 23.1789C205.505 23.1789 205.968 23.1789 206.626 23.1789L208.526 23.0885C209.139 23.0885 209.827 23.0885 210.589 22.9227L210.395 25.6047C209.495 25.6044 208.623 25.9186 207.927 26.4936C207.473 27.3603 207.251 28.3316 207.284 29.3112C207.21 31.1795 207.105 33.1985 207 35.3381C206.896 37.4776 206.821 39.5418 206.746 41.5005C206.671 43.4593 206.656 45.1016 206.656 46.4124C206.578 47.2507 206.744 48.0938 207.135 48.8383C207.355 49.0731 207.626 49.2526 207.927 49.3625C208.229 49.4724 208.551 49.5096 208.87 49.4711C209.303 49.4711 209.946 49.4711 210.843 49.3506L210.963 49.5464L210.514 52.2284C209.886 52.2284 209.333 52.153 208.87 52.153C208.406 52.153 207.927 52.153 207.374 52.153H205.983C205.011 52.153 203.935 52.153 202.783 52.2585L199.792 52.4393C199.384 52.4571 198.979 52.5126 198.581 52.6051ZM206.058 48.3862L204.069 46.096C207.309 42.942 210.519 39.7076 213.7 36.3928C216.88 33.078 219.96 29.6929 222.941 26.2375L225.035 28.5428C221.785 31.737 218.575 34.9815 215.404 38.2762C212.234 41.5709 209.139 44.9409 206.118 48.3862H206.058ZM229.491 52.2886L225.887 52.1832H223.225H221.61H219.636C218.993 52.1832 218.231 52.1832 217.393 52.1832L217.842 49.5766C218.361 49.6264 218.884 49.5663 219.379 49.4002C219.873 49.2342 220.328 48.9658 220.713 48.6123C221.33 47.5094 221.586 46.239 221.446 44.9811V28.3168C221.52 27.6421 221.378 26.9613 221.042 26.3731C220.84 26.1924 220.602 26.0562 220.345 25.9731C220.087 25.8901 219.816 25.8621 219.547 25.8909H218.051L217.917 25.6348L218.231 23.1487H221.311C222.134 23.1487 222.807 23.1487 223.36 23.1487C223.913 23.1487 224.601 23.1487 225.304 23.1487L227.323 23.0583C227.981 23.0583 228.714 23.0583 229.506 22.8926L229.491 25.6649C228.652 25.7206 227.838 25.9734 227.114 26.4032C226.885 26.6297 226.706 26.9027 226.59 27.204C226.474 27.5054 226.423 27.8282 226.441 28.151C226.441 30.155 226.261 32.3096 226.156 34.6299C226.052 36.9503 225.977 39.1501 225.902 41.2444C225.828 43.3387 225.813 45.0715 225.813 46.4727C225.736 47.3076 225.891 48.1475 226.261 48.8985C226.463 49.132 226.718 49.3119 227.005 49.4223C227.292 49.5327 227.601 49.5701 227.906 49.5314C228.582 49.5134 229.256 49.453 229.925 49.3506L230.06 49.6067L229.491 52.2886Z" fill="#777780"/>
<path d="M132.928 7.53906V7.28906H132.678H132.289H132.039V7.53906V10.9052H127.335V7.53906V7.28906H127.085H126.637H126.387V7.53906V15.3288V15.5788H126.637H127.085H127.335V15.3288V11.8421H132.039V15.3288V15.5788H132.289H132.678H132.928V15.3288V7.53906Z" fill="#777780" stroke="#777780" stroke-width="0.5"/>
<path d="M141.924 13.5493L142.085 13.1954H141.696H141.263H141.125L141.051 13.3115C140.938 13.4907 140.808 13.659 140.664 13.8142C140.499 13.9787 140.321 14.1294 140.132 14.2651C139.924 14.4069 139.699 14.5227 139.462 14.6099C139.194 14.6934 138.914 14.7346 138.633 14.7323L138.633 14.7323L138.628 14.7323C138.248 14.7357 137.871 14.6656 137.516 14.5258C137.176 14.3733 136.864 14.1624 136.595 13.9023C136.326 13.6192 136.111 13.289 135.96 12.9278C135.823 12.5941 135.729 12.2445 135.679 11.8874H141.95H142.2V11.6374V11.6371V11.6368V11.6366V11.6363V11.636V11.6358V11.6355V11.6352V11.6349V11.6347V11.6344V11.6341V11.6338V11.6335V11.6333V11.633V11.6327V11.6324V11.6321V11.6318V11.6315V11.6312V11.6309V11.6306V11.6303V11.63V11.6297V11.6294V11.6291V11.6288V11.6285V11.6282V11.6279V11.6276V11.6273V11.627V11.6267V11.6264V11.6261V11.6258V11.6254V11.6251V11.6248V11.6245V11.6242V11.6239V11.6235V11.6232V11.6229V11.6226V11.6222V11.6219V11.6216V11.6213V11.6209V11.6206V11.6203V11.6199V11.6196V11.6193V11.6189V11.6186V11.6183V11.6179V11.6176V11.6172V11.6169V11.6166V11.6162V11.6159V11.6155V11.6152V11.6148V11.6145V11.6142V11.6138V11.6135V11.6131V11.6128V11.6124V11.6121V11.6117V11.6113V11.611V11.6106V11.6103V11.6099V11.6096V11.6092V11.6089V11.6085V11.6081V11.6078V11.6074V11.607V11.6067V11.6063V11.606V11.6056V11.6052V11.6049V11.6045V11.6041V11.6038V11.6034V11.603V11.6027V11.6023V11.6019V11.6015V11.6012V11.6008V11.6004V11.6V11.5997V11.5993V11.5989V11.5985V11.5982V11.5978V11.5974V11.597V11.5967V11.5963V11.5959V11.5955V11.5951V11.5948V11.5944V11.594V11.5936V11.5932V11.5929V11.5925V11.5921V11.5917V11.5913V11.5909V11.5906V11.5902V11.5898V11.5894V11.589V11.5886V11.5882V11.5878V11.5875V11.5871V11.5867V11.5863V11.5859V11.5855V11.5851V11.5847V11.5844V11.584V11.5836V11.5832V11.5828V11.5824V11.582V11.5816V11.5812V11.5808V11.5804V11.5801V11.5797V11.5793V11.5789V11.5785V11.5781V11.5777V11.5773V11.5769V11.5765V11.5761V11.5757V11.5753V11.575V11.5746V11.5742V11.5738V11.5734V11.573V11.5726V11.5722V11.5718V11.5714V11.571V11.5706V11.5702V11.5698V11.5694V11.5691V11.5687V11.5683V11.5679V11.5675V11.5671V11.5667V11.5663V11.5659V11.5655V11.5651V11.5647V11.5643V11.564V11.5636V11.5632V11.5628V11.5624V11.562V11.5616V11.5612V11.5608V11.5604V11.56V11.5597V11.5593V11.5589V11.5585V11.5581V11.5577V11.5573V11.5569V11.5565V11.5562V11.5558V11.5554V11.555V11.5546V11.5542V11.5538V11.5535V11.5531V11.5527V11.5523V11.5519V11.5515V11.5512V11.5508V11.5504V11.55V11.5496V11.5492V11.5489V11.5485V11.5481V11.5477V11.5474V11.547V11.5466V11.5462V11.5458V11.5455V11.5451V11.5447V11.5443V11.544V11.5436V11.5432V11.5428V11.5425V11.5421V11.5417V11.5414V11.541V11.5406V11.5403V11.5399V11.5395V11.5392V11.5388V11.5384V11.5381V11.5377V11.5373V11.537V11.5366V11.5363V11.5359V11.5355V11.5352V11.5348V11.5345V11.5341V11.5337V11.5334V11.533V11.5327V11.5323V11.532V11.5316V11.5313V11.5309V11.5306V11.5302V11.5299V11.5295V11.5292V11.5288V11.5285V11.5282V11.5278V11.5275V11.5271V11.5268V11.5265V11.5261V11.5258V11.5254V11.5251V11.5248V11.5244V11.5241V11.5238V11.5234V11.5231V11.5228V11.5225V11.5221V11.5218V11.5215V11.5212V11.5208V11.5205V11.5202V11.5199V11.5196V11.5192V11.5189V11.5186V11.5183V11.518V11.5177V11.5174V11.5171V11.5167V11.5164V11.5161V11.5158V11.5155V11.5152V11.5149V11.5146V11.5143V11.514V11.5137V11.5134V11.5131V11.5128V11.5125V11.5123V11.512V11.5117V11.5114V11.5111V11.5108V11.5105V11.5103V11.51V11.5097V11.5094V11.5091V11.5089V11.5086V11.5083V11.508V11.5078V11.5075V11.5072V11.507V11.5067V11.5064V11.5062V11.5059V11.5057V11.5054V11.5052V11.5049V11.5046V11.5044V11.5041V11.5039V11.5036V11.5034V11.5032V11.5029V11.5027V11.5024V11.5022V11.502V11.5017V11.5015V11.5012V11.501V11.5008V11.5006C142.207 11.436 142.208 11.371 142.202 11.3063C142.208 11.2375 142.208 11.1681 142.201 11.0993C142.213 10.5861 142.12 10.0756 141.928 9.59992L141.928 9.59915C141.556 8.68906 140.852 7.95648 139.96 7.55245L139.96 7.55243L139.957 7.551C139.515 7.35867 139.04 7.25928 138.559 7.25897C138.048 7.24701 137.54 7.35273 137.076 7.56803C136.63 7.77062 136.225 8.05373 135.88 8.40328L135.88 8.40303L135.871 8.41306C135.525 8.80389 135.248 9.2507 135.049 9.73461L135.049 9.73459L135.048 9.73868C134.841 10.2712 134.738 10.8393 134.747 11.4111C134.737 11.9877 134.839 12.5606 135.047 13.0979C135.233 13.5878 135.508 14.0385 135.858 14.4266L135.858 14.4267L135.863 14.4323C136.219 14.8023 136.64 15.1018 137.106 15.3151L137.106 15.3151L137.109 15.3165C137.588 15.528 138.105 15.6378 138.629 15.6391C139.029 15.6443 139.426 15.5785 139.803 15.4448C140.142 15.3322 140.462 15.1683 140.751 14.9588L140.751 14.9591L140.762 14.9508C141.01 14.7504 141.241 14.5286 141.451 14.288L141.452 14.2864C141.643 14.0643 141.802 13.8161 141.924 13.5493ZM141.257 10.9052H135.683C135.735 10.585 135.827 10.2725 135.958 9.97561L135.958 9.97561L135.959 9.97312C136.114 9.61142 136.331 9.27965 136.598 8.99248C136.852 8.7331 137.15 8.522 137.478 8.36923C137.816 8.21834 138.182 8.14376 138.551 8.15067L138.551 8.15072L138.556 8.15072C138.902 8.15024 139.244 8.22467 139.558 8.36902L139.559 8.36921C139.883 8.51729 140.176 8.7277 140.42 8.98876C140.679 9.27685 140.885 9.60828 141.031 9.96817L141.031 9.96817L141.032 9.97069C141.156 10.2686 141.232 10.5841 141.257 10.9052Z" fill="#777780" stroke="#777780" stroke-width="0.5"/>
<path d="M151.233 14.8616V14.6116H150.983H149.932V7.61426V7.36426H149.682H145.196H144.972L144.947 7.58616L144.349 12.8747L144.349 12.8749C144.316 13.1646 144.239 13.4473 144.118 13.7124C144.024 13.893 143.91 14.0626 143.778 14.2179L143.772 14.2251L143.767 14.2327C143.661 14.3794 143.531 14.5073 143.384 14.6116H142.938H142.688V14.8616V17.3627V17.6127H142.938H143.371H143.621V17.3627V15.5787H150.299V17.3326V17.5826H150.549H150.983H151.233V17.3326V14.8616ZM148.953 8.24094V14.6116H144.61C144.632 14.58 144.653 14.5478 144.673 14.5151C144.817 14.3031 144.935 14.0748 145.026 13.835L145.026 13.835L145.027 13.8308C145.14 13.5159 145.214 13.1886 145.25 12.8559L145.82 8.24094H148.953Z" fill="#777780" stroke="#777780" stroke-width="0.5"/>
<path d="M155.933 14.6118H153.476V11.7669L156.022 11.7669L156.024 11.7669C156.237 11.7655 156.449 11.8055 156.648 11.8847L156.647 11.8849L156.657 11.8882C156.841 11.9533 157.009 12.0575 157.15 12.1938L157.15 12.1938L157.152 12.1958C157.289 12.3258 157.403 12.4794 157.487 12.6495C157.564 12.8161 157.604 12.9978 157.604 13.1819C157.604 13.3633 157.565 13.5425 157.49 13.7071C157.389 13.8805 157.252 14.03 157.089 14.1456L157.074 14.1566L157.06 14.1699C156.919 14.3062 156.751 14.4104 156.567 14.4755L156.557 14.4792L156.547 14.4838C156.355 14.5714 156.147 14.6151 155.937 14.6119L155.937 14.6118H155.933ZM157.327 11.2336C157.379 11.2025 157.431 11.1696 157.481 11.1348L157.487 11.1302L157.494 11.1252C157.695 10.9654 157.866 10.7704 157.999 10.5496C158.175 10.2783 158.267 9.96018 158.261 9.63637C158.274 9.32437 158.221 9.0132 158.105 8.72313C157.989 8.43062 157.813 8.16619 157.587 7.94741L157.587 7.94738L157.584 7.94408C157.345 7.72111 157.064 7.5483 156.758 7.43586C156.454 7.32415 156.131 7.27429 155.807 7.2892H152.822H152.572V7.5392V15.2988V15.5488H152.822L155.978 15.5488L155.978 15.5488C156.319 15.5476 156.657 15.4862 156.977 15.3674L156.977 15.3677L156.989 15.3624C157.278 15.237 157.545 15.0637 157.777 14.8499L157.777 14.85L157.781 14.8462C158.003 14.6321 158.18 14.3744 158.3 14.0892C158.433 13.804 158.501 13.4928 158.501 13.1778C158.512 12.7912 158.411 12.4094 158.21 12.0797L158.21 12.0797L158.209 12.0778C158.05 11.8229 157.848 11.5974 157.613 11.4113L157.607 11.4068L157.602 11.4026C157.513 11.3407 157.422 11.2843 157.327 11.2336ZM155.766 10.755L155.766 10.7547H155.753H153.476V8.23532L155.759 8.18088L155.759 8.18096L155.766 8.18064C156.165 8.16086 156.556 8.29952 156.856 8.56734C156.983 8.68695 157.084 8.83231 157.153 8.99409C157.222 9.15664 157.256 9.33205 157.253 9.50887L157.253 9.50978C157.251 9.67231 157.215 9.8325 157.147 9.97983L157.374 10.0844L157.147 9.97983C157.079 10.1272 156.981 10.2582 156.86 10.3645L156.86 10.3645L156.857 10.3666C156.558 10.6355 156.166 10.7748 155.766 10.755Z" fill="#777780" stroke="#777780" stroke-width="0.5"/>
<path d="M166.935 7.53906V7.28906H166.685H166.386H166.262L166.187 7.38719L161.312 13.7617V7.53906V7.28906H161.062H160.613H160.363V7.53906V15.3288V15.5788H160.613H160.972H161.097L161.172 15.4794L166.001 9.0836V15.3288V15.5788H166.251H166.685H166.935V15.3288V7.53906Z" fill="#777780" stroke="#777780" stroke-width="0.5"/>
<path d="M169.032 15.5788H169.138L169.211 15.5029L172.715 11.8924V15.3288V15.5788H172.965H173.399H173.649V15.3288V11.8924L177.152 15.5029L177.226 15.5788H177.332H177.945H178.533L178.125 15.1554L174.359 11.246L177.78 7.71297L178.191 7.28906H177.601H176.988H176.882L176.808 7.36516L173.649 10.628V7.5692V7.33597L173.416 7.3198L172.982 7.28966L172.715 7.27109V7.53906V10.6581L169.556 7.39529L169.482 7.3192H169.376H168.763H168.173L168.583 7.7431L172.004 11.2755L168.24 15.1547L167.828 15.5788H168.419H169.032Z" fill="#777780" stroke="#777780" stroke-width="0.5"/>
<path d="M186.001 7.53906V7.28906H185.751H185.392H185.269L185.194 7.38719L180.319 13.7617V7.53906V7.28906H180.069H179.62H179.37V7.53906V15.3288V15.5788H179.62H179.979H180.103L180.178 15.4803L185.053 9.07859V15.3288V15.5788H185.303H185.751H186.001V15.3288V7.53906Z" fill="#777780" stroke="#777780" stroke-width="0.5"/>
<path d="M191.878 15.4316L191.945 15.5788H192.106H192.405H192.566L192.633 15.4329L195.356 9.48443V15.3288V15.5788H195.606H196.054H196.304V15.3288V7.53906V7.28906H196.054H195.531H195.37L195.303 7.43564L192.286 14.0754L189.283 7.43604L189.217 7.28906H189.056H188.532H188.282V7.53906V15.3288V15.5788H188.532H188.966H189.216V15.3288V9.52986L191.878 15.4316Z" fill="#777780" stroke="#777780" stroke-width="0.5"/>
<path d="M198.334 9.73768L198.334 9.73767L198.334 9.7387C198.127 10.271 198.024 10.8386 198.033 11.4101C198.018 12.002 198.12 12.5909 198.333 13.1429C198.702 14.1198 199.434 14.9146 200.374 15.359L200.374 15.359L200.378 15.3608C200.842 15.571 201.346 15.6812 201.855 15.6843L201.857 15.6843C202.368 15.6831 202.872 15.5727 203.336 15.3604L203.337 15.3599C203.799 15.1463 204.216 14.8463 204.566 14.476L204.566 14.476L204.568 14.4739C204.925 14.0871 205.205 13.6357 205.395 13.1436L205.395 13.1436C205.602 12.6059 205.704 12.0331 205.696 11.4566C205.704 10.8847 205.602 10.3166 205.395 9.7839L205.394 9.78288C205.201 9.29381 204.922 8.8441 204.569 8.45583L204.569 8.45582L204.568 8.45448C204.22 8.07795 203.801 7.77607 203.335 7.56712L203.334 7.56686C202.869 7.36008 202.366 7.25511 201.858 7.25897C201.348 7.24881 200.842 7.35438 200.377 7.56781C199.928 7.77106 199.519 8.05335 199.168 8.40136L199.168 8.40112L199.159 8.41063C198.806 8.7989 198.527 9.2486 198.334 9.73768ZM198.966 11.4134L198.966 11.4134L198.966 11.4077C198.953 10.5447 199.273 9.71051 199.857 9.08015L199.857 9.08021L199.861 9.07536C200.113 8.78903 200.421 8.55865 200.766 8.39871L200.766 8.39873L200.768 8.39757C201.108 8.23512 201.48 8.15084 201.857 8.15074L201.858 8.15074C202.234 8.14945 202.605 8.23366 202.944 8.39717L202.944 8.39731L202.952 8.40083C203.302 8.55461 203.614 8.78451 203.866 9.07422L203.866 9.07427L203.871 9.07905C204.146 9.38033 204.363 9.73162 204.509 10.1144L204.509 10.1144L204.511 10.1182C204.845 10.9526 204.845 11.8853 204.511 12.7196L204.511 12.7196L204.509 12.7245C204.363 13.1122 204.146 13.4686 203.869 13.7752L203.868 13.7766C203.612 14.0645 203.299 14.2949 202.95 14.4532L202.95 14.4532L202.946 14.4549C202.607 14.6152 202.236 14.6946 201.862 14.6872L201.862 14.6871L201.854 14.6871C201.479 14.6904 201.108 14.6111 200.766 14.4546C200.423 14.2903 200.115 14.0598 199.86 13.7759C199.582 13.4649 199.36 13.108 199.203 12.7209C199.043 12.304 198.963 11.8604 198.966 11.4134Z" fill="#777780" stroke="#777780" stroke-width="0.5"/>
<path d="M210.891 8.15074L210.888 8.15076C210.512 8.14946 210.141 8.23367 209.801 8.39718L209.793 8.40098L209.793 8.40084C209.443 8.55462 209.131 8.78453 208.88 9.07423L208.878 9.0764L208.878 9.07639C208.605 9.38303 208.388 9.73545 208.235 10.1177L208.235 10.1182C207.901 10.9526 207.901 11.8853 208.235 12.7196L208.236 12.7211L208.236 12.7211C208.388 13.108 208.605 13.4653 208.878 13.7773C209.134 14.0648 209.447 14.2951 209.796 14.4532L209.799 14.4545L209.799 14.4545C210.139 14.6137 210.51 14.6932 210.885 14.6872L210.891 14.6871L210.891 14.6871C211.191 14.6894 211.49 14.6339 211.77 14.5237L211.77 14.5237C212.041 14.417 212.296 14.2725 212.527 14.0944C212.742 13.9139 212.931 13.7044 213.089 13.4717C213.239 13.246 213.36 13.0021 213.449 12.7456L213.508 12.5777H213.686H214.119H214.432L214.363 12.8827C214.284 13.2346 214.147 13.5708 213.958 13.8777L213.955 13.8829L213.955 13.8828C213.744 14.2089 213.485 14.5018 213.189 14.7517L213.187 14.7532L213.187 14.7532C212.874 15.0118 212.528 15.2265 212.157 15.3915L212.151 15.3942L212.151 15.3941C211.751 15.56 211.321 15.6433 210.888 15.6391C210.378 15.6378 209.874 15.5274 209.409 15.3152L209.406 15.3137L209.406 15.3137C208.949 15.0966 208.534 14.7981 208.182 14.4325L208.177 14.4274L208.172 14.4221C207.628 13.7891 207.265 13.0197 207.12 12.1956C206.975 11.3715 207.055 10.5233 207.35 9.74102L207.353 9.73461L207.353 9.73464C207.551 9.25074 207.829 8.80393 208.175 8.41309L208.182 8.4052L208.182 8.40535C208.534 8.03982 208.949 7.74128 209.406 7.52421L209.408 7.52328L209.408 7.52329C209.873 7.30787 210.38 7.202 210.891 7.21378C211.323 7.21004 211.751 7.29326 212.151 7.45853C212.531 7.61334 212.883 7.8315 213.192 8.10382C213.493 8.362 213.752 8.66657 213.959 9.00621C213.959 9.00622 213.959 9.00622 213.959 9.00622L213.745 9.13626C213.881 9.35948 213.987 9.59977 214.059 9.85056L210.891 8.15074ZM210.891 8.15074C211.191 8.14849 211.49 8.20395 211.77 8.31417L211.77 8.31418L211.771 8.31466C212.043 8.41996 212.296 8.56823 212.521 8.75396C212.738 8.94495 212.928 9.16447 213.086 9.40664L210.891 8.15074Z" fill="#777780" stroke="#777780" stroke-width="0.5"/>
<path d="M215.45 7.28906H215.2V7.53906V7.99108V8.24108H215.45H217.907V15.3288V15.5788H218.157H218.591H218.841V15.3288V8.24108H221.297H221.547V7.99108V7.53906V7.28906H221.297H215.45Z" fill="#777780" stroke="#777780" stroke-width="0.5"/>
<path d="M223.835 10.301V7.53906V7.28906H223.585H223.137H222.887V7.53906V15.2987V15.5487H223.137H226.126C226.491 15.5528 226.853 15.4854 227.192 15.3501L227.192 15.3502L227.2 15.3466C227.512 15.2095 227.798 15.0208 228.048 14.7885L228.048 14.7887L228.055 14.7815C228.295 14.539 228.486 14.2514 228.616 13.9351C228.757 13.6148 228.829 13.2683 228.829 12.918C228.829 12.5678 228.757 12.2213 228.616 11.901C228.486 11.5847 228.295 11.2971 228.055 11.0546L228.055 11.0544L228.048 11.0476C227.798 10.8153 227.512 10.6266 227.2 10.4895L227.2 10.4893L227.192 10.486C226.853 10.3506 226.49 10.2832 226.125 10.2874L223.835 10.301ZM226.127 14.6117H223.85V11.2244L226.128 11.2244L226.128 11.2244C226.366 11.2239 226.601 11.2732 226.82 11.369L226.82 11.3691L226.824 11.3709C227.032 11.4576 227.223 11.5825 227.387 11.7392C227.539 11.897 227.664 12.0807 227.754 12.2818L227.754 12.2818L227.754 12.2833C227.845 12.4827 227.893 12.6991 227.896 12.9185C227.894 13.1409 227.848 13.3606 227.762 13.5649C227.675 13.7696 227.548 13.9548 227.389 14.1096C227.226 14.2667 227.035 14.3919 226.827 14.479C226.603 14.565 226.366 14.6099 226.127 14.6117Z" fill="#777780" stroke="#777780" stroke-width="0.5"/>
<path d="M0.693363 33.6657C0.690405 40.2766 2.63355 46.7399 6.277 52.2379C9.92044 57.736 15.1005 62.0217 21.1618 64.553C27.2231 67.0843 33.8934 67.7473 40.3288 66.4583C46.7642 65.1693 52.6756 61.9862 57.3152 57.3115C61.9547 52.6369 65.114 46.6808 66.3933 40.1968C67.6727 33.7127 67.0146 26.992 64.5023 20.8849C61.99 14.7777 57.7364 9.55854 52.2796 5.88756C46.8228 2.21658 40.408 0.258742 33.8467 0.261722C25.0551 0.265715 16.6247 3.78633 10.4081 10.0499C4.19153 16.3135 0.697326 24.8076 0.693363 33.6657Z" fill="white"/>
<mask id="mask0_14_1349" style="mask-type:luminance" maskUnits="userSpaceOnUse" x="0" y="0" width="68" height="68">
<path d="M0.693363 33.6657C0.690405 40.2766 2.63355 46.7399 6.277 52.2379C9.92044 57.736 15.1005 62.0217 21.1618 64.553C27.2231 67.0843 33.8934 67.7473 40.3288 66.4583C46.7642 65.1693 52.6756 61.9862 57.3152 57.3115C61.9547 52.6369 65.114 46.6808 66.3933 40.1968C67.6727 33.7127 67.0146 26.992 64.5023 20.8849C61.99 14.7777 57.7364 9.55854 52.2796 5.88756C46.8228 2.21658 40.408 0.258742 33.8467 0.261722C25.0551 0.265715 16.6247 3.78633 10.4081 10.0499C4.19153 16.3135 0.697326 24.8076 0.693363 33.6657Z" fill="white"/>
</mask>
<g mask="url(#mask0_14_1349)">
<path d="M37.3349 -32.9587L-32.2773 30.1721L30.3798 100.311L99.992 37.1798L37.3349 -32.9587Z" fill="#777780"/>
</g>
<path d="M10.7429 49.9834L10.5186 49.5917C17.7212 45.3483 25.9146 43.1118 34.2583 43.1118C42.6019 43.1118 50.7953 45.3483 57.998 49.5917L57.7736 49.9834C50.6392 45.7797 42.5231 43.5641 34.2583 43.5641C25.9934 43.5641 17.8773 45.7797 10.7429 49.9834Z" fill="white"/>
<path d="M34.4747 10.4172H34.041V43.2938H34.4747V10.4172Z" fill="white"/>
<path d="M57.7587 49.9835C53.0631 46.5482 48.1881 43.2334 43.2532 40.1446C37.7501 36.6189 32.0974 33.4096 26.2803 30.3961L26.4747 30.0044C32.247 33.0178 37.9744 36.2874 43.4925 39.7529C48.4274 42.8416 53.3174 46.1564 58.013 49.6068L57.7587 49.9835Z" fill="white"/>
<path d="M57.7438 49.9834C53.2575 46.1111 48.5171 42.269 43.8364 38.5474C38.7371 34.4943 33.4882 30.4865 28.2393 26.6443L28.4935 26.2827C33.7424 30.1399 38.9614 34.1478 44.1056 38.2009C48.7862 41.9225 53.4669 45.7344 58.0279 49.6519L57.7438 49.9834Z" fill="white"/>
<path d="M57.0552 49.3958C52.2849 46.6385 47.3351 44.0469 42.3553 41.6814C36.3737 38.8789 30.2574 36.3175 24.0664 34.1478L24.2159 33.741C30.4219 35.8956 36.583 38.4721 42.5647 41.2896C47.5444 43.6552 52.4942 46.2467 57.2945 49.004L57.0552 49.3958Z" fill="white"/>
<path d="M57.7885 49.9836C52.9187 47.4322 47.8825 45.2173 42.7147 43.3541C35.8096 40.8995 28.6969 39.0839 21.4648 37.9299V37.4929C28.725 38.6361 35.864 40.457 42.7894 42.9322C47.9796 44.7762 53.0363 46.9813 57.923 49.5316L57.7885 49.9836Z" fill="white"/>
<path d="M12.9857 48.4769L12.7314 48.1153C17.442 44.8005 20.9413 42.3747 26.3248 39.0749L29.4053 37.1915C33.8916 34.4644 37.4207 32.2947 42.0266 29.9744L42.236 30.3812C37.645 32.6865 34.1009 34.9013 29.6296 37.5833L26.5491 39.4366C21.1805 42.676 17.6962 45.1018 12.9857 48.4769Z" fill="white"/>
<path d="M12.6569 48.2809L12.3877 47.9494C16.7394 44.3634 20.3283 41.5157 25.6371 37.4024C27.94 35.6245 29.884 34.0274 31.7683 32.4604C34.3404 30.3359 36.7779 28.3169 39.8435 26.1472L40.0977 26.5088C37.1069 28.6634 34.6245 30.6824 32.0524 32.8069C30.1682 34.3136 28.2092 35.971 25.8913 37.7489C20.6573 41.8623 17.1431 44.71 12.6569 48.2809Z" fill="white"/>
<path d="M12.2533 48.733L12.0439 48.3412C17.0087 45.5839 22.138 42.9924 27.3121 40.6268C32.8889 38.0044 38.5994 35.6808 44.4197 33.6658L44.5692 34.0726C38.7638 36.1012 33.0639 38.4245 27.4916 41.0336C22.3324 43.3841 17.1433 45.9757 12.2533 48.733Z" fill="white"/>
<path d="M12.432 48.7329L12.2227 48.3411C16.9925 45.9776 21.9252 43.9634 26.9824 42.3142C33.4929 39.9843 40.2146 38.3038 47.0509 37.2969L47.1256 37.7489C40.3405 38.7305 33.6684 40.3859 27.2067 42.6909C22.1467 44.3517 17.2095 46.3707 12.432 48.7329Z" fill="white"/>
<path d="M57.7434 49.9835C51.4485 44.3677 46.109 37.751 41.9368 30.3962C38.5197 24.3053 35.9342 17.7775 34.2504 10.9897C32.5619 17.733 29.9764 24.2153 26.564 30.2606C22.4104 37.6637 17.0751 44.3272 10.7724 49.9835L10.4883 49.6521C16.7502 44.0321 22.0546 37.4151 26.1901 30.0647C29.7294 23.7848 32.3724 17.0336 34.0411 10.0103L34.2504 9.12134L34.4747 10.0103C36.1461 17.0232 38.789 23.7641 42.3257 30.0346C46.4565 37.3882 51.7615 44.0059 58.0275 49.6219L57.7434 49.9835Z" fill="white"/>
<path d="M34.1511 17.0492L29.8057 43.3257L30.0269 43.3628L34.3724 17.0863L34.1511 17.0492Z" fill="white"/>
<path d="M34.1567 17.0624L25.4648 44.1118L25.6782 44.1814L34.3701 17.132L34.1567 17.0624Z" fill="white"/>
<path d="M34.3697 17.0553L34.1484 17.0925L38.4985 43.3683L38.7197 43.3311L34.3697 17.0553Z" fill="white"/>
<path d="M34.354 17.0386L34.1406 17.1082L42.8278 44.1591L43.0412 44.0895L34.354 17.0386Z" fill="white"/>
<path d="M23.9533 52.3958V50.2748H25.4623V50.5988H24.3133V51.1898H25.2823V51.5018H24.3133V52.0718H25.5163V52.3958H23.9533ZM26.632 52.4348C26.452 52.4348 26.296 52.4208 26.164 52.3928C26.034 52.3628 25.891 52.3128 25.735 52.2428L25.873 51.9248C26.137 52.0508 26.384 52.1138 26.614 52.1138C26.746 52.1138 26.848 52.0878 26.92 52.0358C26.994 51.9838 27.031 51.9098 27.031 51.8138C27.031 51.7238 26.993 51.6578 26.917 51.6158C26.841 51.5738 26.714 51.5338 26.536 51.4958C26.276 51.4438 26.082 51.3718 25.954 51.2798C25.826 51.1878 25.762 51.0468 25.762 50.8568C25.762 50.6688 25.829 50.5188 25.963 50.4068C26.097 50.2928 26.29 50.2358 26.542 50.2358C26.842 50.2358 27.105 50.2908 27.331 50.4008L27.178 50.7038C26.972 50.6098 26.76 50.5628 26.542 50.5628C26.414 50.5628 26.315 50.5898 26.245 50.6438C26.177 50.6978 26.143 50.7638 26.143 50.8418C26.143 50.9298 26.184 50.9958 26.266 51.0398C26.35 51.0818 26.489 51.1238 26.683 51.1658C26.801 51.1918 26.899 51.2188 26.977 51.2468C27.057 51.2728 27.132 51.3098 27.202 51.3578C27.274 51.4038 27.327 51.4628 27.361 51.5348C27.397 51.6048 27.415 51.6898 27.415 51.7898C27.415 52.0038 27.348 52.1648 27.214 52.2728C27.08 52.3808 26.886 52.4348 26.632 52.4348ZM28.2496 52.3958V50.6108H27.5566V50.2748H29.3176V50.6108H28.6246V52.3958H28.2496Z" fill="white"/>
<path d="M32.7986 52.0718H34.0376V52.3958H32.4236V52.2728C32.4296 52.0948 32.4816 51.9518 32.5796 51.8438C32.6776 51.7338 32.8466 51.6048 33.0866 51.4568C33.2966 51.3288 33.4416 51.2268 33.5216 51.1508C33.6016 51.0748 33.6416 50.9818 33.6416 50.8718C33.6416 50.7698 33.6036 50.6918 33.5276 50.6378C33.4536 50.5818 33.3576 50.5538 33.2396 50.5538C33.1016 50.5538 32.9896 50.5918 32.9036 50.6678C32.8176 50.7418 32.7746 50.8428 32.7746 50.9708V51.0368H32.4236V50.9558C32.4236 50.7338 32.4976 50.5588 32.6456 50.4308C32.7936 50.3008 32.9936 50.2358 33.2456 50.2358C33.4696 50.2358 33.6556 50.2888 33.8036 50.3948C33.9516 50.5008 34.0256 50.6518 34.0256 50.8478C34.0256 50.9278 34.0136 51.0018 33.9896 51.0698C33.9676 51.1358 33.9406 51.1928 33.9086 51.2408C33.8786 51.2868 33.8286 51.3378 33.7586 51.3938C33.6906 51.4478 33.6286 51.4928 33.5726 51.5288C33.5186 51.5628 33.4386 51.6108 33.3326 51.6728C33.3086 51.6868 33.2706 51.7098 33.2186 51.7418C33.1666 51.7718 33.1306 51.7928 33.1106 51.8048C33.0926 51.8148 33.0646 51.8318 33.0266 51.8558C32.9906 51.8778 32.9646 51.8958 32.9486 51.9098C32.9326 51.9218 32.9126 51.9378 32.8886 51.9578C32.8666 51.9778 32.8486 51.9968 32.8346 52.0148C32.8206 52.0328 32.8086 52.0518 32.7986 52.0718ZM35.9558 52.1438C35.7818 52.3378 35.5438 52.4348 35.2418 52.4348C34.9398 52.4348 34.7018 52.3378 34.5278 52.1438C34.3538 51.9478 34.2668 51.6788 34.2668 51.3368C34.2668 50.9908 34.3538 50.7208 34.5278 50.5268C34.7018 50.3308 34.9398 50.2328 35.2418 50.2328C35.5438 50.2328 35.7818 50.3308 35.9558 50.5268C36.1298 50.7208 36.2168 50.9908 36.2168 51.3368C36.2168 51.6788 36.1298 51.9478 35.9558 52.1438ZM34.8008 51.9008C34.9088 52.0368 35.0558 52.1048 35.2418 52.1048C35.4278 52.1048 35.5738 52.0368 35.6798 51.9008C35.7878 51.7648 35.8418 51.5768 35.8418 51.3368C35.8418 51.0948 35.7878 50.9058 35.6798 50.7698C35.5738 50.6318 35.4278 50.5628 35.2418 50.5628C35.0558 50.5628 34.9088 50.6318 34.8008 50.7698C34.6948 50.9058 34.6418 51.0948 34.6418 51.3368C34.6418 51.5768 34.6948 51.7648 34.8008 51.9008ZM36.7947 52.0718H38.0337V52.3958H36.4197V52.2728C36.4257 52.0948 36.4777 51.9518 36.5757 51.8438C36.6737 51.7338 36.8427 51.6048 37.0827 51.4568C37.2927 51.3288 37.4377 51.2268 37.5177 51.1508C37.5977 51.0748 37.6377 50.9818 37.6377 50.8718C37.6377 50.7698 37.5997 50.6918 37.5237 50.6378C37.4497 50.5818 37.3537 50.5538 37.2357 50.5538C37.0977 50.5538 36.9857 50.5918 36.8997 50.6678C36.8137 50.7418 36.7707 50.8428 36.7707 50.9708V51.0368H36.4197V50.9558C36.4197 50.7338 36.4937 50.5588 36.6417 50.4308C36.7897 50.3008 36.9897 50.2358 37.2417 50.2358C37.4657 50.2358 37.6517 50.2888 37.7997 50.3948C37.9477 50.5008 38.0217 50.6518 38.0217 50.8478C38.0217 50.9278 38.0097 51.0018 37.9857 51.0698C37.9637 51.1358 37.9367 51.1928 37.9047 51.2408C37.8747 51.2868 37.8247 51.3378 37.7547 51.3938C37.6867 51.4478 37.6247 51.4928 37.5687 51.5288C37.5147 51.5628 37.4347 51.6108 37.3287 51.6728C37.3047 51.6868 37.2667 51.7098 37.2147 51.7418C37.1627 51.7718 37.1267 51.7928 37.1067 51.8048C37.0887 51.8148 37.0607 51.8318 37.0227 51.8558C36.9867 51.8778 36.9607 51.8958 36.9447 51.9098C36.9287 51.9218 36.9087 51.9378 36.8847 51.9578C36.8627 51.9778 36.8447 51.9968 36.8307 52.0148C36.8167 52.0328 36.8047 52.0518 36.7947 52.0718ZM38.6551 52.0718H39.8941V52.3958H38.2801V52.2728C38.2861 52.0948 38.3381 51.9518 38.4361 51.8438C38.5341 51.7338 38.7031 51.6048 38.9431 51.4568C39.1531 51.3288 39.2981 51.2268 39.3781 51.1508C39.4581 51.0748 39.4981 50.9818 39.4981 50.8718C39.4981 50.7698 39.4601 50.6918 39.3841 50.6378C39.3101 50.5818 39.2141 50.5538 39.0961 50.5538C38.9581 50.5538 38.8461 50.5918 38.7601 50.6678C38.6741 50.7418 38.6311 50.8428 38.6311 50.9708V51.0368H38.2801V50.9558C38.2801 50.7338 38.3541 50.5588 38.5021 50.4308C38.6501 50.3008 38.8501 50.2358 39.1021 50.2358C39.3261 50.2358 39.5121 50.2888 39.6601 50.3948C39.8081 50.5008 39.8821 50.6518 39.8821 50.8478C39.8821 50.9278 39.8701 51.0018 39.8461 51.0698C39.8241 51.1358 39.7971 51.1928 39.7651 51.2408C39.7351 51.2868 39.6851 51.3378 39.6151 51.3938C39.5471 51.4478 39.4851 51.4928 39.4291 51.5288C39.3751 51.5628 39.2951 51.6108 39.1891 51.6728C39.1651 51.6868 39.1271 51.7098 39.0751 51.7418C39.0231 51.7718 38.9871 51.7928 38.9671 51.8048C38.9491 51.8148 38.9211 51.8318 38.8831 51.8558C38.8471 51.8778 38.8211 51.8958 38.8051 51.9098C38.7891 51.9218 38.7691 51.9378 38.7451 51.9578C38.7231 51.9778 38.7051 51.9968 38.6911 52.0148C38.6771 52.0328 38.6651 52.0518 38.6551 52.0718Z" fill="white"/>
</svg>
