<svg width="27" height="27" viewBox="0 0 27 27" fill="none" xmlns="http://www.w3.org/2000/svg">
<path d="M20.9375 4H6.0625C5.4757 4 5 4.53166 5 5.1875V21.8125C5 22.4683 5.4757 23 6.0625 23H20.9375C21.5243 23 22 22.4683 22 21.8125V5.1875C22 4.53166 21.5243 4 20.9375 4Z" stroke="#ED7149" stroke-width="2" stroke-linecap="round" stroke-linejoin="round"/>
<path d="M17.666 18.667H17.668V18.669H17.666V18.667Z" stroke="#ED7149" stroke-width="2" stroke-linecap="round" stroke-linejoin="round"/>
<path d="M13.5 18.667H13.502V18.669H13.5V18.667Z" stroke="#ED7149" stroke-width="2" stroke-linecap="round" stroke-linejoin="round"/>
<path d="M9.33398 18.667H9.33598V18.669H9.33398V18.667Z" stroke="#ED7149" stroke-width="2" stroke-linecap="round" stroke-linejoin="round"/>
<path d="M17.666 14.5H17.668V14.502H17.666V14.5Z" stroke="#ED7149" stroke-width="2" stroke-linecap="round" stroke-linejoin="round"/>
<path d="M13.5 14.5H13.502V14.502H13.5V14.5Z" stroke="#ED7149" stroke-width="2" stroke-linecap="round" stroke-linejoin="round"/>
<path d="M9.33398 14.5H9.33598V14.502H9.33398V14.5Z" stroke="#ED7149" stroke-width="2" stroke-linecap="round" stroke-linejoin="round"/>
<path d="M5.16602 10.333H21.8327" stroke="#ED7149" stroke-width="2" stroke-linecap="round" stroke-linejoin="round"/>
</svg>
