<svg width="27" height="27" viewBox="0 0 27 27" fill="none" xmlns="http://www.w3.org/2000/svg">
<path d="M15.0682 7.02637H11.1457C10.6031 7.02637 10.1632 7.46623 10.1632 8.00879V13.3024H9.57666C9.0341 13.3024 8.59424 13.7423 8.59424 14.2848C8.59424 14.8274 9.0341 15.2672 9.57666 15.2672H10.1632V16.4404H9.57666C9.0341 16.4404 8.59424 16.8803 8.59424 17.4229C8.59424 17.9654 9.0341 18.4053 9.57666 18.4053H10.1632V19.7764C10.1632 20.3189 10.6031 20.7588 11.1457 20.7588C11.6882 20.7588 12.1281 20.3189 12.1281 19.7764V18.4053H15.0682C15.6108 18.4053 16.0506 17.9654 16.0506 17.4229C16.0506 16.8803 15.6108 16.4404 15.0682 16.4404H12.1281V15.2672H15.0682C17.3405 15.2672 19.1887 13.419 19.1887 11.1468C19.1886 8.81769 17.2912 7.02637 15.0682 7.02637ZM15.0682 13.3024H12.1281V8.99121H15.0682C16.2502 8.99121 17.2238 9.94436 17.2238 11.1468C17.2238 12.3352 16.2566 13.3024 15.0682 13.3024Z" fill="#ED7149" stroke="#ED7149" stroke-width="0.5"/>
<path d="M13.5 0.75C6.4694 0.75 0.75 6.4694 0.75 13.5C0.75 20.5306 6.4694 26.25 13.5 26.25C20.5306 26.25 26.25 20.5306 26.25 13.5C26.25 6.4694 20.5306 0.75 13.5 0.75ZM13.5 24.2852C7.55326 24.2852 2.71484 19.4467 2.71484 13.5C2.71484 7.55326 7.55326 2.71484 13.5 2.71484C19.4467 2.71484 24.2852 7.55326 24.2852 13.5C24.2852 19.4467 19.4467 24.2852 13.5 24.2852Z" fill="#ED7149" stroke="#ED7149" stroke-width="0.5"/>
</svg>
