<svg width="27" height="24" viewBox="0 0 27 24" fill="none" xmlns="http://www.w3.org/2000/svg">
<path d="M1.08604 23.024L1.11126 23.0691L1.15551 23.0424C4.89965 20.7838 9.15881 19.5936 13.496 19.5936C17.8331 19.5936 22.0923 20.7838 25.8364 23.0424L25.8807 23.0691L25.9059 23.024L26.0239 22.8131L26.0475 22.7709L26.006 22.7459C22.2106 20.4566 17.8929 19.25 13.496 19.25C9.09904 19.25 4.78136 20.4566 0.985895 22.7459L0.944461 22.7709L0.96808 22.8131L1.08604 23.024Z" fill="#ED7149" stroke="#ED7149" stroke-width="0.1"/>
<path d="M13.6628 1.69922V1.64922H13.6128H13.3848H13.3348V1.69922V19.3993V19.4493H13.3848H13.6128H13.6628V19.3993V1.69922Z" fill="#ED7149" stroke="#ED7149" stroke-width="0.1"/>
<path d="M25.8267 23.0388L25.8692 23.0706L25.8984 23.0263L26.0321 22.8235L26.058 22.7843L26.0204 22.756C23.5501 20.8976 20.9775 19.1123 18.3813 17.4487C15.4783 15.5822 12.4652 13.8213 9.42854 12.1983L9.38266 12.1738L9.35997 12.2206L9.25774 12.4315L9.23671 12.4749L9.27931 12.4975C12.3373 14.1193 15.3086 15.8463 18.2011 17.7435L18.2015 17.7438C20.7956 19.4061 23.3583 21.19 25.8267 23.0388Z" fill="#ED7149" stroke="#ED7149" stroke-width="0.1"/>
<path d="M25.8167 23.0365L25.8552 23.0705L25.8882 23.0311L26.0376 22.8526L26.0689 22.8152L26.0323 22.783C23.6331 20.6733 21.1711 18.6206 18.7094 16.6167L18.7092 16.6166C16.0036 14.4342 13.2586 12.2761 10.4977 10.1991L10.456 10.1677L10.4265 10.2107L10.2928 10.4054L10.2656 10.4449L10.304 10.4737C13.0638 12.5418 15.8235 14.6992 18.5047 16.8809C20.9659 18.8843 23.4582 20.9524 25.8167 23.0365Z" fill="#ED7149" stroke="#ED7149" stroke-width="0.1"/>
<path d="M25.4614 22.7262L25.5043 22.7515L25.5298 22.7087L25.6556 22.4978L25.6814 22.4546L25.638 22.4291C23.1125 20.944 20.5083 19.5481 17.8884 18.274L17.8883 18.2739C14.7413 16.7563 11.4996 15.3685 8.23406 14.2078L8.1871 14.1911L8.17025 14.238L8.09161 14.457L8.07471 14.5041L8.12179 14.521C11.3756 15.6884 14.5903 17.0667 17.7346 18.5748C20.3522 19.8478 22.954 21.2424 25.4614 22.7262Z" fill="#ED7149" stroke="#ED7149" stroke-width="0.1"/>
<path d="M25.8497 23.043L25.9041 23.0722L25.9214 23.0129L25.9922 22.7695L26.0035 22.7306L25.9677 22.7115C23.3958 21.3373 20.7345 20.1492 18.0029 19.1556C14.3579 17.8219 10.6006 16.8408 6.77944 16.2248L6.72148 16.2155V16.2742V16.5094V16.5519L6.76342 16.5588C10.5635 17.1796 14.3009 18.1562 17.9292 19.4766C20.6446 20.4789 23.2909 21.6705 25.8497 23.043Z" fill="#ED7149" stroke="#ED7149" stroke-width="0.1"/>
<path d="M2.27021 22.2175L2.29941 22.26L2.341 22.2295C4.81772 20.4128 6.64885 19.1076 9.47044 17.3646L11.0903 16.3669C11.4318 16.1572 11.763 15.9528 12.087 15.7528C13.9948 14.5755 15.6545 13.5513 17.7165 12.4913L17.7605 12.4686L17.7383 12.4243L17.6282 12.2053L17.6055 12.1602L17.5606 12.1833C15.2491 13.3755 13.4527 14.4939 11.2458 15.868C11.1381 15.935 11.0295 16.0026 10.9198 16.0709L10.9197 16.071L9.29967 17.085L9.29962 17.085C6.46719 18.8624 4.62598 20.1691 2.14851 21.9539L2.10884 21.9825L2.13652 22.0228L2.27021 22.2175Z" fill="#ED7149" stroke="#ED7149" stroke-width="0.1"/>
<path d="M2.09847 22.1137L2.12996 22.1534L2.16923 22.1214C2.94933 21.4857 3.67346 20.8926 4.39283 20.3035C5.8493 19.1106 7.28622 17.9338 9.12848 16.4516C9.93064 15.8216 10.6518 15.2192 11.3331 14.6502C11.6872 14.3543 12.0306 14.0674 12.3691 13.7904L12.3697 13.7899C13.7221 12.6463 15.0265 11.5602 16.5979 10.4012L16.6368 10.3725L16.6095 10.3326L16.4758 10.138L16.4468 10.0957L16.4052 10.1258C14.8162 11.2772 13.5477 12.3498 12.2179 13.4743L12.1557 13.527L12.1555 13.5271C11.1648 14.3706 10.143 15.23 8.93268 16.1866L8.93261 16.1867C6.14059 18.4014 4.25279 19.9349 1.96385 21.8659L1.92677 21.8972L1.95692 21.9352L2.09847 22.1137Z" fill="#ED7149" stroke="#ED7149" stroke-width="0.1"/>
<path d="M1.88609 22.3486L1.91023 22.3949L1.95541 22.3688C4.5255 20.8852 7.25302 19.4906 9.96506 18.2256L9.96553 18.2254C12.8944 16.8215 15.8902 15.5713 18.9416 14.4797L18.9887 14.4629L18.9718 14.4157L18.8931 14.1967L18.8763 14.1499L18.8294 14.1665C15.767 15.2519 12.7624 16.5036 9.82811 17.9161C7.10602 19.1902 4.40755 20.586 1.7956 22.0711L1.75367 22.095L1.77599 22.1377L1.88609 22.3486Z" fill="#ED7149" stroke="#ED7149" stroke-width="0.1"/>
<path d="M1.97398 22.3492L1.99683 22.393L2.04088 22.3707C4.55112 21.1001 7.14528 20.014 9.80395 19.1206L9.80396 19.1207L9.80518 19.1202C13.2001 17.8804 16.7055 16.99 20.2703 16.462L20.3204 16.4546L20.3124 16.4046L20.273 16.1612L20.2651 16.1124L20.2162 16.1197C16.6181 16.6623 13.0802 17.5678 9.65354 18.8232C6.99197 19.7119 4.39593 20.7971 1.88558 22.0706L1.84047 22.0935L1.86388 22.1383L1.97398 22.3492Z" fill="#ED7149" stroke="#ED7149" stroke-width="0.1"/>
<path d="M25.8168 23.0363L25.857 23.0731L25.8902 23.0299L26.0396 22.8352L26.0675 22.7988L26.0338 22.7679C22.7426 19.7481 19.9562 16.1895 17.7865 12.2352L17.7865 12.2352C15.9288 8.8633 14.5406 5.23843 13.6627 1.46726L13.6626 1.46663L13.5446 0.988034L13.4473 0.988791L13.3372 1.4673C12.4607 5.24406 11.0725 8.87448 9.2135 12.2514L9.21348 12.2514C7.04125 16.204 4.25514 19.7622 0.966171 22.7841L0.931011 22.8164L0.961663 22.853L1.11108 23.0315L1.14469 23.0717L1.18325 23.0362C4.50176 19.9873 7.31082 16.3955 9.49772 12.4051C11.2618 9.20558 12.6062 5.77901 13.4958 2.21522C14.3831 5.80302 15.7276 9.25403 17.4943 12.478L17.4945 12.4782C19.6911 16.4426 22.5024 20.0092 25.8168 23.0363Z" fill="#ED7149" stroke="#ED7149" stroke-width="0.1"/>
<path d="M13.4533 5.21892L13.4041 5.21045L13.3961 5.25981L11.1109 19.4066L11.1029 19.4559L11.1522 19.4644L11.2685 19.4844L11.3178 19.4929L11.3258 19.4435L13.611 5.29675L13.619 5.24739L13.5697 5.23892L13.4533 5.21892Z" fill="#ED7149" stroke="#ED7149" stroke-width="0.1"/>
<path d="M13.4609 5.22682L13.4134 5.21098L13.3985 5.25868L8.82757 19.8216L8.8126 19.8693L8.86003 19.8851L8.97225 19.9226L9.01968 19.9384L9.03465 19.8907L13.6055 5.32784L13.6205 5.28014L13.5731 5.2643L13.4609 5.22682Z" fill="#ED7149" stroke="#ED7149" stroke-width="0.1"/>
<path d="M13.6109 5.26447L13.603 5.21511L13.5537 5.22359L13.4373 5.24361L13.3881 5.25209L13.396 5.30145L15.6836 19.4478L15.6916 19.4972L15.7409 19.4887L15.8572 19.4687L15.9065 19.4602L15.8985 19.4108L13.6109 5.26447Z" fill="#ED7149" stroke="#ED7149" stroke-width="0.1"/>
<path d="M13.5991 5.24652L13.5841 5.19881L13.5367 5.21464L13.4245 5.2521L13.3771 5.26793L13.392 5.31563L17.9605 19.8793L17.9754 19.927L18.0228 19.9112L18.1351 19.8738L18.1825 19.8579L18.1675 19.8102L13.5991 5.24652Z" fill="#ED7149" stroke="#ED7149" stroke-width="0.1"/>
</svg>
