<svg width="27" height="25" viewBox="0 0 27 25" fill="none" xmlns="http://www.w3.org/2000/svg">
<mask id="path-1-outside-1_14_8209" maskUnits="userSpaceOnUse" x="0" y="0" width="27" height="25" fill="black">
<rect fill="white" width="27" height="25"/>
<path d="M1 23.5713V16.5152C1.03365 16.453 1.06318 16.3886 1.08838 16.3225C1.73119 14.2364 2.37154 12.1484 3.00943 10.0586C3.06323 9.87945 3.09052 9.69341 3.09045 9.50637C3.09659 7.6043 3.09045 5.70222 3.09597 3.80015C3.08994 3.59686 3.10144 3.39342 3.13034 3.1921C3.36357 1.8674 4.43703 1.00104 5.84866 1.00042C10.9764 1.00042 16.1045 1.00042 21.233 1.00042C21.4696 0.996588 21.7059 1.01881 21.9376 1.06669C23.1879 1.34832 23.99 2.37237 23.9937 3.694C23.9998 5.65375 23.9937 7.61289 23.998 9.57202C23.9989 9.71757 24.0208 9.86223 24.0631 10.0015C24.6596 11.9576 25.2507 13.9161 25.8706 15.8648C26.0185 16.3363 26.092 16.8279 26.0885 17.322C26.0917 19.3223 26.0917 21.3223 26.0885 23.3222C26.0885 23.7958 25.8945 23.9922 25.4219 23.9971C24.8262 24.0004 24.23 24.0004 23.6334 23.9971C23.1424 23.9971 22.9534 23.8026 22.9528 23.3148C22.9528 22.8522 22.9528 22.3889 22.9528 21.9189H4.13629C4.13629 22.3969 4.13629 22.8601 4.13629 23.324C4.13629 23.7983 3.94295 23.9946 3.46975 23.9989C2.87379 24.0026 2.27784 23.9953 1.68188 23.9989C1.35659 24.0051 1.1117 23.8983 1 23.5713ZM22.954 9.35666V9.11491C22.954 7.32696 22.954 5.53922 22.954 3.75168C22.954 2.70431 22.309 2.05393 21.2607 2.05331C16.1162 2.05086 10.9717 2.05086 5.82718 2.05331C4.7838 2.05331 4.13813 2.70677 4.13751 3.75536C4.13751 5.5429 4.13751 7.33064 4.13751 9.11859C4.13751 9.19652 4.14427 9.27505 4.14856 9.35727H5.55038C5.57125 9.28426 5.59273 9.21554 5.61175 9.14559C5.75783 8.56883 5.89285 7.98901 6.05182 7.41593C6.25129 6.69621 6.82024 6.24278 7.55183 6.23419C8.67807 6.22192 9.80554 6.22008 10.9324 6.23419C11.5725 6.24278 12.0703 6.54098 12.3348 7.13123C12.4478 7.38218 12.4827 7.68345 12.4981 7.96017C12.5239 8.42035 12.5054 8.88359 12.5054 9.36402H14.5885C14.5885 8.86703 14.5885 8.40992 14.5885 7.95281C14.5934 6.87906 15.2428 6.22928 16.3132 6.22806C17.3259 6.22806 18.3384 6.22806 19.3507 6.22806C20.3155 6.22806 20.8617 6.66246 21.0949 7.60675C21.2392 8.19026 21.3877 8.77254 21.5344 9.35543L22.954 9.35666ZM2.05811 20.8452H25.0481V20.2187C25.0481 19.2554 25.0512 18.2927 25.0481 17.3294C25.0481 16.884 24.8474 16.6882 24.408 16.6772C24.3589 16.6772 24.3098 16.6772 24.2607 16.6772H2.82592C2.77682 16.6772 2.72772 16.6772 2.67862 16.6772C2.24899 16.6895 2.04584 16.8821 2.044 17.3098C2.03847 18.4363 2.044 19.5628 2.044 20.6893C2.04338 20.7366 2.05198 20.7838 2.05811 20.8452ZM24.6682 15.6298C24.6717 15.6025 24.6717 15.5749 24.6682 15.5476C24.1568 13.8799 23.6433 12.2132 23.1277 10.5476C23.1096 10.5127 23.0835 10.4825 23.0515 10.4596C23.0195 10.4367 22.9825 10.4216 22.9436 10.4157C22.5195 10.4034 22.0941 10.4034 21.67 10.4157C21.6298 10.4207 21.5912 10.4346 21.5571 10.4565C21.5231 10.4784 21.4943 10.5076 21.473 10.5421C21.1661 11.1661 20.6481 11.4526 19.9748 11.4588C18.7252 11.4694 17.4756 11.4694 16.226 11.4588C15.5564 11.4545 15.0568 11.1563 14.7444 10.5519C14.7207 10.5145 14.689 10.4829 14.6515 10.4593C14.614 10.4358 14.5717 10.4209 14.5278 10.4157C13.8731 10.4046 13.2199 10.4046 12.5681 10.4157C12.5241 10.4208 12.4818 10.4358 12.4444 10.4595C12.407 10.4832 12.3755 10.515 12.352 10.5525C12.0384 11.1557 11.5394 11.4551 10.8692 11.4588C9.61957 11.4667 8.36997 11.4692 7.12098 11.4588C6.44585 11.4526 5.93091 11.1655 5.62219 10.5421C5.597 10.5059 5.56403 10.4757 5.5257 10.4538C5.48737 10.432 5.44464 10.4189 5.40062 10.4157C5.01702 10.4028 4.63281 10.4194 4.24922 10.4059C4.06509 10.3991 3.9853 10.4543 3.92884 10.6403C3.45072 12.2116 2.96402 13.7842 2.47608 15.358C2.4503 15.4421 2.4325 15.5286 2.40795 15.6267L24.6682 15.6298ZM8.96347 10.4059C9.58397 10.4059 10.2045 10.4089 10.8256 10.4059C11.2515 10.4059 11.4455 10.2157 11.4492 9.79966C11.4541 9.16277 11.4541 8.52588 11.4492 7.889C11.4461 7.48281 11.2565 7.27542 10.8532 7.27542C9.78283 7.26683 8.71306 7.26867 7.64328 7.27542C7.29283 7.27542 7.1222 7.42329 7.03505 7.76628C6.87425 8.39826 6.71631 9.03106 6.56123 9.66467C6.44462 10.1359 6.65821 10.4071 7.14982 10.4095C7.75437 10.4083 8.35892 10.4059 8.96347 10.4059ZM18.1268 10.4059C18.7308 10.4059 19.3341 10.4059 19.9374 10.4059C20.4413 10.4059 20.6457 10.1353 20.5242 9.64258C20.3711 9.02656 20.2175 8.41053 20.0632 7.79451C19.9669 7.41164 19.8018 7.2742 19.409 7.27297C18.3656 7.26929 17.3222 7.26929 16.2788 7.27297C15.8351 7.27297 15.6442 7.47299 15.6417 7.92029C15.6389 8.5314 15.6389 9.14273 15.6417 9.75425C15.6417 10.223 15.8259 10.404 16.2935 10.4059C16.9036 10.4077 17.5155 10.4059 18.1268 10.4059ZM3.08677 21.9189H2.05627V22.927H3.08677V21.9189ZM25.0389 21.9189H24.0158V22.9307H25.0346L25.0389 21.9189Z"/>
</mask>
<path d="M1 23.5713V16.5152C1.03365 16.453 1.06318 16.3886 1.08838 16.3225C1.73119 14.2364 2.37154 12.1484 3.00943 10.0586C3.06323 9.87945 3.09052 9.69341 3.09045 9.50637C3.09659 7.6043 3.09045 5.70222 3.09597 3.80015C3.08994 3.59686 3.10144 3.39342 3.13034 3.1921C3.36357 1.8674 4.43703 1.00104 5.84866 1.00042C10.9764 1.00042 16.1045 1.00042 21.233 1.00042C21.4696 0.996588 21.7059 1.01881 21.9376 1.06669C23.1879 1.34832 23.99 2.37237 23.9937 3.694C23.9998 5.65375 23.9937 7.61289 23.998 9.57202C23.9989 9.71757 24.0208 9.86223 24.0631 10.0015C24.6596 11.9576 25.2507 13.9161 25.8706 15.8648C26.0185 16.3363 26.092 16.8279 26.0885 17.322C26.0917 19.3223 26.0917 21.3223 26.0885 23.3222C26.0885 23.7958 25.8945 23.9922 25.4219 23.9971C24.8262 24.0004 24.23 24.0004 23.6334 23.9971C23.1424 23.9971 22.9534 23.8026 22.9528 23.3148C22.9528 22.8522 22.9528 22.3889 22.9528 21.9189H4.13629C4.13629 22.3969 4.13629 22.8601 4.13629 23.324C4.13629 23.7983 3.94295 23.9946 3.46975 23.9989C2.87379 24.0026 2.27784 23.9953 1.68188 23.9989C1.35659 24.0051 1.1117 23.8983 1 23.5713ZM22.954 9.35666V9.11491C22.954 7.32696 22.954 5.53922 22.954 3.75168C22.954 2.70431 22.309 2.05393 21.2607 2.05331C16.1162 2.05086 10.9717 2.05086 5.82718 2.05331C4.7838 2.05331 4.13813 2.70677 4.13751 3.75536C4.13751 5.5429 4.13751 7.33064 4.13751 9.11859C4.13751 9.19652 4.14427 9.27505 4.14856 9.35727H5.55038C5.57125 9.28426 5.59273 9.21554 5.61175 9.14559C5.75783 8.56883 5.89285 7.98901 6.05182 7.41593C6.25129 6.69621 6.82024 6.24278 7.55183 6.23419C8.67807 6.22192 9.80554 6.22008 10.9324 6.23419C11.5725 6.24278 12.0703 6.54098 12.3348 7.13123C12.4478 7.38218 12.4827 7.68345 12.4981 7.96017C12.5239 8.42035 12.5054 8.88359 12.5054 9.36402H14.5885C14.5885 8.86703 14.5885 8.40992 14.5885 7.95281C14.5934 6.87906 15.2428 6.22928 16.3132 6.22806C17.3259 6.22806 18.3384 6.22806 19.3507 6.22806C20.3155 6.22806 20.8617 6.66246 21.0949 7.60675C21.2392 8.19026 21.3877 8.77254 21.5344 9.35543L22.954 9.35666ZM2.05811 20.8452H25.0481V20.2187C25.0481 19.2554 25.0512 18.2927 25.0481 17.3294C25.0481 16.884 24.8474 16.6882 24.408 16.6772C24.3589 16.6772 24.3098 16.6772 24.2607 16.6772H2.82592C2.77682 16.6772 2.72772 16.6772 2.67862 16.6772C2.24899 16.6895 2.04584 16.8821 2.044 17.3098C2.03847 18.4363 2.044 19.5628 2.044 20.6893C2.04338 20.7366 2.05198 20.7838 2.05811 20.8452ZM24.6682 15.6298C24.6717 15.6025 24.6717 15.5749 24.6682 15.5476C24.1568 13.8799 23.6433 12.2132 23.1277 10.5476C23.1096 10.5127 23.0835 10.4825 23.0515 10.4596C23.0195 10.4367 22.9825 10.4216 22.9436 10.4157C22.5195 10.4034 22.0941 10.4034 21.67 10.4157C21.6298 10.4207 21.5912 10.4346 21.5571 10.4565C21.5231 10.4784 21.4943 10.5076 21.473 10.5421C21.1661 11.1661 20.6481 11.4526 19.9748 11.4588C18.7252 11.4694 17.4756 11.4694 16.226 11.4588C15.5564 11.4545 15.0568 11.1563 14.7444 10.5519C14.7207 10.5145 14.689 10.4829 14.6515 10.4593C14.614 10.4358 14.5717 10.4209 14.5278 10.4157C13.8731 10.4046 13.2199 10.4046 12.5681 10.4157C12.5241 10.4208 12.4818 10.4358 12.4444 10.4595C12.407 10.4832 12.3755 10.515 12.352 10.5525C12.0384 11.1557 11.5394 11.4551 10.8692 11.4588C9.61957 11.4667 8.36997 11.4692 7.12098 11.4588C6.44585 11.4526 5.93091 11.1655 5.62219 10.5421C5.597 10.5059 5.56403 10.4757 5.5257 10.4538C5.48737 10.432 5.44464 10.4189 5.40062 10.4157C5.01702 10.4028 4.63281 10.4194 4.24922 10.4059C4.06509 10.3991 3.9853 10.4543 3.92884 10.6403C3.45072 12.2116 2.96402 13.7842 2.47608 15.358C2.4503 15.4421 2.4325 15.5286 2.40795 15.6267L24.6682 15.6298ZM8.96347 10.4059C9.58397 10.4059 10.2045 10.4089 10.8256 10.4059C11.2515 10.4059 11.4455 10.2157 11.4492 9.79966C11.4541 9.16277 11.4541 8.52588 11.4492 7.889C11.4461 7.48281 11.2565 7.27542 10.8532 7.27542C9.78283 7.26683 8.71306 7.26867 7.64328 7.27542C7.29283 7.27542 7.1222 7.42329 7.03505 7.76628C6.87425 8.39826 6.71631 9.03106 6.56123 9.66467C6.44462 10.1359 6.65821 10.4071 7.14982 10.4095C7.75437 10.4083 8.35892 10.4059 8.96347 10.4059ZM18.1268 10.4059C18.7308 10.4059 19.3341 10.4059 19.9374 10.4059C20.4413 10.4059 20.6457 10.1353 20.5242 9.64258C20.3711 9.02656 20.2175 8.41053 20.0632 7.79451C19.9669 7.41164 19.8018 7.2742 19.409 7.27297C18.3656 7.26929 17.3222 7.26929 16.2788 7.27297C15.8351 7.27297 15.6442 7.47299 15.6417 7.92029C15.6389 8.5314 15.6389 9.14273 15.6417 9.75425C15.6417 10.223 15.8259 10.404 16.2935 10.4059C16.9036 10.4077 17.5155 10.4059 18.1268 10.4059ZM3.08677 21.9189H2.05627V22.927H3.08677V21.9189ZM25.0389 21.9189H24.0158V22.9307H25.0346L25.0389 21.9189Z" fill="#ED7149"/>
<path d="M1 23.5713V16.5152C1.03365 16.453 1.06318 16.3886 1.08838 16.3225C1.73119 14.2364 2.37154 12.1484 3.00943 10.0586C3.06323 9.87945 3.09052 9.69341 3.09045 9.50637C3.09659 7.6043 3.09045 5.70222 3.09597 3.80015C3.08994 3.59686 3.10144 3.39342 3.13034 3.1921C3.36357 1.8674 4.43703 1.00104 5.84866 1.00042C10.9764 1.00042 16.1045 1.00042 21.233 1.00042C21.4696 0.996588 21.7059 1.01881 21.9376 1.06669C23.1879 1.34832 23.99 2.37237 23.9937 3.694C23.9998 5.65375 23.9937 7.61289 23.998 9.57202C23.9989 9.71757 24.0208 9.86223 24.0631 10.0015C24.6596 11.9576 25.2507 13.9161 25.8706 15.8648C26.0185 16.3363 26.092 16.8279 26.0885 17.322C26.0917 19.3223 26.0917 21.3223 26.0885 23.3222C26.0885 23.7958 25.8945 23.9922 25.4219 23.9971C24.8262 24.0004 24.23 24.0004 23.6334 23.9971C23.1424 23.9971 22.9534 23.8026 22.9528 23.3148C22.9528 22.8522 22.9528 22.3889 22.9528 21.9189H4.13629C4.13629 22.3969 4.13629 22.8601 4.13629 23.324C4.13629 23.7983 3.94295 23.9946 3.46975 23.9989C2.87379 24.0026 2.27784 23.9953 1.68188 23.9989C1.35659 24.0051 1.1117 23.8983 1 23.5713ZM22.954 9.35666V9.11491C22.954 7.32696 22.954 5.53922 22.954 3.75168C22.954 2.70431 22.309 2.05393 21.2607 2.05331C16.1162 2.05086 10.9717 2.05086 5.82718 2.05331C4.7838 2.05331 4.13813 2.70677 4.13751 3.75536C4.13751 5.5429 4.13751 7.33064 4.13751 9.11859C4.13751 9.19652 4.14427 9.27505 4.14856 9.35727H5.55038C5.57125 9.28426 5.59273 9.21554 5.61175 9.14559C5.75783 8.56883 5.89285 7.98901 6.05182 7.41593C6.25129 6.69621 6.82024 6.24278 7.55183 6.23419C8.67807 6.22192 9.80554 6.22008 10.9324 6.23419C11.5725 6.24278 12.0703 6.54098 12.3348 7.13123C12.4478 7.38218 12.4827 7.68345 12.4981 7.96017C12.5239 8.42035 12.5054 8.88359 12.5054 9.36402H14.5885C14.5885 8.86703 14.5885 8.40992 14.5885 7.95281C14.5934 6.87906 15.2428 6.22928 16.3132 6.22806C17.3259 6.22806 18.3384 6.22806 19.3507 6.22806C20.3155 6.22806 20.8617 6.66246 21.0949 7.60675C21.2392 8.19026 21.3877 8.77254 21.5344 9.35543L22.954 9.35666ZM2.05811 20.8452H25.0481V20.2187C25.0481 19.2554 25.0512 18.2927 25.0481 17.3294C25.0481 16.884 24.8474 16.6882 24.408 16.6772C24.3589 16.6772 24.3098 16.6772 24.2607 16.6772H2.82592C2.77682 16.6772 2.72772 16.6772 2.67862 16.6772C2.24899 16.6895 2.04584 16.8821 2.044 17.3098C2.03847 18.4363 2.044 19.5628 2.044 20.6893C2.04338 20.7366 2.05198 20.7838 2.05811 20.8452ZM24.6682 15.6298C24.6717 15.6025 24.6717 15.5749 24.6682 15.5476C24.1568 13.8799 23.6433 12.2132 23.1277 10.5476C23.1096 10.5127 23.0835 10.4825 23.0515 10.4596C23.0195 10.4367 22.9825 10.4216 22.9436 10.4157C22.5195 10.4034 22.0941 10.4034 21.67 10.4157C21.6298 10.4207 21.5912 10.4346 21.5571 10.4565C21.5231 10.4784 21.4943 10.5076 21.473 10.5421C21.1661 11.1661 20.6481 11.4526 19.9748 11.4588C18.7252 11.4694 17.4756 11.4694 16.226 11.4588C15.5564 11.4545 15.0568 11.1563 14.7444 10.5519C14.7207 10.5145 14.689 10.4829 14.6515 10.4593C14.614 10.4358 14.5717 10.4209 14.5278 10.4157C13.8731 10.4046 13.2199 10.4046 12.5681 10.4157C12.5241 10.4208 12.4818 10.4358 12.4444 10.4595C12.407 10.4832 12.3755 10.515 12.352 10.5525C12.0384 11.1557 11.5394 11.4551 10.8692 11.4588C9.61957 11.4667 8.36997 11.4692 7.12098 11.4588C6.44585 11.4526 5.93091 11.1655 5.62219 10.5421C5.597 10.5059 5.56403 10.4757 5.5257 10.4538C5.48737 10.432 5.44464 10.4189 5.40062 10.4157C5.01702 10.4028 4.63281 10.4194 4.24922 10.4059C4.06509 10.3991 3.9853 10.4543 3.92884 10.6403C3.45072 12.2116 2.96402 13.7842 2.47608 15.358C2.4503 15.4421 2.4325 15.5286 2.40795 15.6267L24.6682 15.6298ZM8.96347 10.4059C9.58397 10.4059 10.2045 10.4089 10.8256 10.4059C11.2515 10.4059 11.4455 10.2157 11.4492 9.79966C11.4541 9.16277 11.4541 8.52588 11.4492 7.889C11.4461 7.48281 11.2565 7.27542 10.8532 7.27542C9.78283 7.26683 8.71306 7.26867 7.64328 7.27542C7.29283 7.27542 7.1222 7.42329 7.03505 7.76628C6.87425 8.39826 6.71631 9.03106 6.56123 9.66467C6.44462 10.1359 6.65821 10.4071 7.14982 10.4095C7.75437 10.4083 8.35892 10.4059 8.96347 10.4059ZM18.1268 10.4059C18.7308 10.4059 19.3341 10.4059 19.9374 10.4059C20.4413 10.4059 20.6457 10.1353 20.5242 9.64258C20.3711 9.02656 20.2175 8.41053 20.0632 7.79451C19.9669 7.41164 19.8018 7.2742 19.409 7.27297C18.3656 7.26929 17.3222 7.26929 16.2788 7.27297C15.8351 7.27297 15.6442 7.47299 15.6417 7.92029C15.6389 8.5314 15.6389 9.14273 15.6417 9.75425C15.6417 10.223 15.8259 10.404 16.2935 10.4059C16.9036 10.4077 17.5155 10.4059 18.1268 10.4059ZM3.08677 21.9189H2.05627V22.927H3.08677V21.9189ZM25.0389 21.9189H24.0158V22.9307H25.0346L25.0389 21.9189Z" stroke="#ED7149" stroke-width="1.2" mask="url(#path-1-outside-1_14_8209)"/>
</svg>
