<svg width="27" height="23" viewBox="0 0 27 23" fill="none" xmlns="http://www.w3.org/2000/svg">
<path d="M1.94141 19.0834C1.94141 19.5481 2.32402 19.9168 2.78663 19.9168C3.24924 19.9168 3.63185 19.5481 3.63185 19.0834V10.2017C3.63185 9.73709 3.24924 9.36841 2.78663 9.36841C2.32402 9.36841 1.94141 9.73709 1.94141 10.2017V19.0834Z" fill="#ED7149" stroke="#ED7149" stroke-width="0.5"/>
<path d="M23.3672 19.0834C23.3672 19.5481 23.7498 19.9168 24.2124 19.9168C24.675 19.9168 25.0576 19.5481 25.0576 19.0834V10.2017C25.0576 9.73709 24.675 9.36841 24.2124 9.36841C23.7498 9.36841 23.3672 9.73709 23.3672 10.2017V19.0834Z" fill="#ED7149" stroke="#ED7149" stroke-width="0.5"/>
<path d="M8.4696 13.2493L8.46951 13.2492L1.29183 10.5269C1.29182 10.5269 1.2918 10.5269 1.29179 10.5269C1.29176 10.5269 1.29174 10.5269 1.29171 10.5269C0.858277 10.3627 0.636375 9.88051 0.807966 9.44705C0.978258 9.01476 1.46696 8.80948 1.89841 8.9711L1.89937 8.97146L1.89937 8.97146L9.07705 11.6938L8.4696 13.2493ZM8.4696 13.2493C8.56887 13.2869 8.67151 13.3052 8.77305 13.3052M8.4696 13.2493L8.77305 13.3052M8.77305 13.3052C9.10801 13.3052 9.42934 13.106 9.56081 12.7739L8.77305 13.3052Z" fill="#ED7149" stroke="#ED7149" stroke-width="0.5"/>
<path d="M17.4404 12.7735L17.4405 12.7738C17.572 13.1059 17.8933 13.3052 18.2283 13.3052C18.3303 13.3052 18.433 13.2869 18.5324 13.2493L18.5325 13.2492L25.7097 10.5269L25.7097 10.5269C26.1427 10.3626 26.3643 9.88038 26.1935 9.44717C26.0232 9.01479 25.5338 8.8094 25.1028 8.97116L25.102 8.97146L17.9242 11.6938L17.9242 11.6939C17.4912 11.8581 17.2696 12.3403 17.4404 12.7735Z" fill="#ED7149" stroke="#ED7149" stroke-width="0.5"/>
<path d="M1.94141 19.0833C1.94141 20.8344 3.39321 22.25 5.16753 22.25C5.63014 22.25 6.01275 21.8813 6.01275 21.4166C6.01275 20.952 5.63014 20.5833 5.16753 20.5833C4.31631 20.5833 3.63185 19.9053 3.63185 19.0833C3.63185 18.6187 3.24924 18.25 2.78663 18.25C2.32402 18.25 1.94141 18.6187 1.94141 19.0833Z" fill="#ED7149" stroke="#ED7149" stroke-width="0.5"/>
<path d="M5.16749 22.2487H21.8338C22.2964 22.2487 22.679 21.88 22.679 21.4154C22.679 20.9507 22.2964 20.582 21.8338 20.582H5.16749C4.70488 20.582 4.32227 20.9507 4.32227 21.4154C4.32227 21.88 4.70488 22.2487 5.16749 22.2487Z" fill="#ED7149" stroke="#ED7149" stroke-width="0.5"/>
<path d="M20.9902 21.4166C20.9902 21.8813 21.3728 22.25 21.8355 22.25C23.6098 22.25 25.0616 20.8344 25.0616 19.0833C25.0616 18.6187 24.679 18.25 24.2164 18.25C23.7537 18.25 23.3711 18.6187 23.3711 19.0833C23.3711 19.9053 22.6867 20.5833 21.8355 20.5833C21.3728 20.5833 20.9902 20.952 20.9902 21.4166Z" fill="#ED7149" stroke="#ED7149" stroke-width="0.5"/>
<path d="M0.75 9.75061C0.75 10.2153 1.13261 10.5839 1.59522 10.5839C2.05783 10.5839 2.44045 10.2153 2.44045 9.75061V7.41731C2.44045 6.95267 2.05783 6.58398 1.59522 6.58398C1.13261 6.58398 0.75 6.95267 0.75 7.41731V9.75061Z" fill="#ED7149" stroke="#ED7149" stroke-width="0.5"/>
<path d="M24.5605 9.75061C24.5605 10.2153 24.9432 10.5839 25.4058 10.5839C25.8684 10.5839 26.251 10.2153 26.251 9.75061V7.41731C26.251 6.95267 25.8684 6.58398 25.4058 6.58398C24.9432 6.58398 24.5605 6.95267 24.5605 7.41731V9.75061Z" fill="#ED7149" stroke="#ED7149" stroke-width="0.5"/>
<path d="M9.07683 11.6938L9.07713 11.6939C11.9289 12.7758 15.0716 12.7758 17.9234 11.6939C18.3545 11.5299 18.8449 11.7381 19.0148 12.1696C19.1856 12.6028 18.9641 13.085 18.5311 13.2493L18.531 13.2493C16.9085 13.8644 15.2047 14.172 13.5002 14.172C11.7958 14.172 10.092 13.8644 8.46957 13.2493L9.07683 11.6938ZM9.07683 11.6938C8.64578 11.5308 8.15584 11.7375 7.9857 12.1695M9.07683 11.6938L7.9857 12.1695M7.9857 12.1695C7.81411 12.6029 8.03602 13.0851 8.46948 13.2493L7.9857 12.1695Z" fill="#ED7149" stroke="#ED7149" stroke-width="0.5"/>
<path d="M0.75 7.41663C0.75 7.88127 1.13261 8.24995 1.59522 8.24995C2.05783 8.24995 2.44045 7.88127 2.44045 7.41663C2.44045 6.59461 3.12491 5.91665 3.97612 5.91665C4.43873 5.91665 4.82134 5.54797 4.82134 5.08333C4.82134 4.61868 4.43873 4.25 3.97612 4.25C2.2018 4.25 0.75 5.66559 0.75 7.41663Z" fill="#ED7149" stroke="#ED7149" stroke-width="0.5"/>
<path d="M3.97804 5.91665H23.0252C23.4878 5.91665 23.8704 5.54796 23.8704 5.08333C23.8704 4.61869 23.4878 4.25 23.0252 4.25H3.97804C3.51543 4.25 3.13281 4.61868 3.13281 5.08333C3.13281 5.54797 3.51543 5.91665 3.97804 5.91665Z" fill="#ED7149" stroke="#ED7149" stroke-width="0.5"/>
<path d="M24.5567 7.41663C24.5567 7.88127 24.9393 8.24995 25.4019 8.24995C25.8645 8.24995 26.2471 7.88127 26.2471 7.41663C26.2471 5.66559 24.7953 4.25 23.021 4.25C22.5584 4.25 22.1758 4.61868 22.1758 5.08333C22.1758 5.54797 22.5584 5.91665 23.021 5.91665C23.8722 5.91665 24.5567 6.59461 24.5567 7.41663Z" fill="#ED7149" stroke="#ED7149" stroke-width="0.5"/>
<path d="M5.51172 5.08201C5.51172 5.54665 5.89433 5.91533 6.35694 5.91533C6.81955 5.91533 7.20217 5.54665 7.20217 5.08201V3.91536C7.20217 3.45072 6.81955 3.08203 6.35694 3.08203C5.89433 3.08203 5.51172 3.45072 5.51172 3.91536V5.08201Z" fill="#ED7149" stroke="#ED7149" stroke-width="0.5"/>
<path d="M19.7969 5.08201C19.7969 5.54665 20.1795 5.91533 20.6421 5.91533C21.1047 5.91533 21.4873 5.54665 21.4873 5.08201V3.91536C21.4873 3.45072 21.1047 3.08203 20.6421 3.08203C20.1795 3.08203 19.7969 3.45072 19.7969 3.91536V5.08201Z" fill="#ED7149" stroke="#ED7149" stroke-width="0.5"/>
<path d="M5.51172 3.91663C5.51172 4.38127 5.89433 4.74995 6.35694 4.74995C6.81955 4.74995 7.20217 4.38127 7.20217 3.91663C7.20217 3.09461 7.88663 2.41665 8.73784 2.41665C9.20045 2.41665 9.58306 2.04797 9.58306 1.58333C9.58306 1.11868 9.20045 0.75 8.73784 0.75C6.96352 0.75 5.51172 2.16559 5.51172 3.91663Z" fill="#ED7149" stroke="#ED7149" stroke-width="0.5"/>
<path d="M8.7378 2.41665H18.2614C18.724 2.41665 19.1066 2.04797 19.1066 1.58333C19.1066 1.11868 18.724 0.75 18.2614 0.75H8.7378C8.27519 0.75 7.89258 1.11868 7.89258 1.58333C7.89258 2.04797 8.27519 2.41665 8.7378 2.41665Z" fill="#ED7149" stroke="#ED7149" stroke-width="0.5"/>
<path d="M19.7969 3.91663C19.7969 4.38127 20.1795 4.74995 20.6421 4.74995C21.1047 4.74995 21.4874 4.38127 21.4874 3.91663C21.4874 2.16559 20.0356 0.75 18.2612 0.75C17.7986 0.75 17.416 1.11868 17.416 1.58333C17.416 2.04797 17.7986 2.41665 18.2612 2.41665C19.1125 2.41665 19.7969 3.09461 19.7969 3.91663Z" fill="#ED7149" stroke="#ED7149" stroke-width="0.5"/>
</svg>
