<svg width="27" height="26" viewBox="0 0 27 26" fill="none" xmlns="http://www.w3.org/2000/svg">
<path d="M26.2068 2.20499L26.2069 2.20499L26.2066 2.20092C26.134 1.22505 25.3195 0.455664 24.3256 0.455664H2.89704V0.455608L2.89369 0.45572L2.76065 0.460185L2.76065 0.460102L2.75659 0.460404C1.78071 0.533005 1.01133 1.34752 1.01133 2.34138V23.7699H1.01127L1.01138 23.7733L1.01585 23.9063L1.01577 23.9063L1.01607 23.9104C1.08867 24.8863 1.90318 25.6557 2.89704 25.6557H24.3256V25.6557L24.3296 25.6556L24.4627 25.6502L24.4627 25.6503L24.466 25.65C25.4419 25.5784 26.2113 24.7638 26.2113 23.7699V2.34138H26.2114L26.2113 2.33802L26.2068 2.20499ZM10.856 7.79852H10.8974L10.9267 7.76924L13.6113 5.08545L16.296 7.76924L16.3253 7.79852H16.3667H24.2256V23.6699H17.2828V19.3057H17.2828L17.2827 19.3023L17.2782 19.1693L17.2783 19.1693L17.278 19.1652C17.2054 18.1893 16.3909 17.4199 15.397 17.4199H11.8256V17.4199L11.8223 17.42L11.6892 17.4245L11.6892 17.4244L11.6852 17.4247C10.7093 17.4973 9.9399 18.3118 9.9399 19.3057V23.6699H2.99704V7.79852H10.856ZM14.8282 3.50265L14.8283 3.50258L14.8249 3.49971C14.0837 2.87549 12.9759 2.91221 12.2781 3.60995L10.0735 5.81281H2.99704V2.44138H24.2256V5.81281H17.1483L14.9445 3.60994L14.9446 3.60988L14.9416 3.60712L14.8282 3.50265ZM11.9256 23.6699V19.4057H15.297V23.6699H11.9256ZM21.747 18.4128C21.747 17.8647 21.3023 17.4199 20.7542 17.4199C20.2061 17.4199 19.7613 17.8647 19.7613 18.4128C19.7613 18.9609 20.2061 19.4057 20.7542 19.4057C21.3023 19.4057 21.747 18.9609 21.747 18.4128ZM7.46133 18.4128C7.46133 17.8647 7.01656 17.4199 6.46847 17.4199C5.92038 17.4199 5.47561 17.8647 5.47561 18.4128C5.47561 18.9609 5.92039 19.4057 6.46847 19.4057C7.01656 19.4057 7.46133 18.9609 7.46133 18.4128ZM21.747 14.8414C21.747 14.2933 21.3023 13.8485 20.7542 13.8485C20.2061 13.8485 19.7613 14.2933 19.7613 14.8414C19.7613 15.3895 20.2061 15.8342 20.7542 15.8342C21.3023 15.8342 21.747 15.3895 21.747 14.8414ZM7.46133 14.8414C7.46133 14.2933 7.01656 13.8485 6.46847 13.8485C5.92038 13.8485 5.47561 14.2933 5.47561 14.8414C5.47561 15.3895 5.92038 15.8342 6.46847 15.8342C7.01656 15.8342 7.46133 15.3895 7.46133 14.8414ZM21.747 11.2699C21.747 10.7219 21.3023 10.2771 20.7542 10.2771C20.2061 10.2771 19.7613 10.7219 19.7613 11.2699C19.7613 11.818 20.2061 12.2628 20.7542 12.2628C21.3023 12.2628 21.747 11.818 21.747 11.2699ZM14.6042 11.2699C14.6042 10.7219 14.1594 10.2771 13.6113 10.2771C13.0632 10.2771 12.6185 10.7219 12.6185 11.2699C12.6185 11.818 13.0632 12.2628 13.6113 12.2628C14.1594 12.2628 14.6042 11.818 14.6042 11.2699ZM7.46133 11.2699C7.46133 10.7219 7.01656 10.2771 6.46847 10.2771C5.92038 10.2771 5.47561 10.7219 5.47561 11.2699C5.47561 11.818 5.92039 12.2628 6.46847 12.2628C7.01656 12.2628 7.46133 11.818 7.46133 11.2699Z" fill="#ED7149" stroke="#ED7149" stroke-width="0.2"/>
</svg>
